<svg width="16" height="16" viewBox="0 0 16 16" fill="none" xmlns="http://www.w3.org/2000/svg">
<circle cx="8" cy="8" r="7.5" fill="#212121" stroke="#262626"/>
<path fill-rule="evenodd" clip-rule="evenodd" d="M8.00001 4C7.63182 4 7.33334 4.29848 7.33334 4.66667V7.33329H4.66667C4.29848 7.33329 4 7.63177 4 7.99996C4 8.36815 4.29848 8.66663 4.66667 8.66663H7.33334V11.3333C7.33334 11.7015 7.63182 12 8.00001 12C8.3682 12 8.66668 11.7015 8.66668 11.3333V8.66663H11.3333C11.7015 8.66663 12 8.36815 12 7.99996C12 7.63177 11.7015 7.33329 11.3333 7.33329H8.66668V4.66667C8.66668 4.29848 8.3682 4 8.00001 4Z" fill="black"/>
<path fill-rule="evenodd" clip-rule="evenodd" d="M8.00001 4C7.63182 4 7.33334 4.29848 7.33334 4.66667V7.33329H4.66667C4.29848 7.33329 4 7.63177 4 7.99996C4 8.36815 4.29848 8.66663 4.66667 8.66663H7.33334V11.3333C7.33334 11.7015 7.63182 12 8.00001 12C8.3682 12 8.66668 11.7015 8.66668 11.3333V8.66663H11.3333C11.7015 8.66663 12 8.36815 12 7.99996C12 7.63177 11.7015 7.33329 11.3333 7.33329H8.66668V4.66667C8.66668 4.29848 8.3682 4 8.00001 4Z" fill="black"/>
<path fill-rule="evenodd" clip-rule="evenodd" d="M8.00001 4C7.63182 4 7.33334 4.29848 7.33334 4.66667V7.33329H4.66667C4.29848 7.33329 4 7.63177 4 7.99996C4 8.36815 4.29848 8.66663 4.66667 8.66663H7.33334V11.3333C7.33334 11.7015 7.63182 12 8.00001 12C8.3682 12 8.66668 11.7015 8.66668 11.3333V8.66663H11.3333C11.7015 8.66663 12 8.36815 12 7.99996C12 7.63177 11.7015 7.33329 11.3333 7.33329H8.66668V4.66667C8.66668 4.29848 8.3682 4 8.00001 4Z" fill="white"/>
</svg>
