<svg width="26" height="26" viewBox="0 0 26 26" fill="none" xmlns="http://www.w3.org/2000/svg">
<path fill-rule="evenodd" clip-rule="evenodd" d="M24.2667 13C24.2667 19.2224 19.2224 24.2667 13 24.2667C6.77759 24.2667 1.73333 19.2224 1.73333 13C1.73333 6.77759 6.77759 1.73333 13 1.73333C19.2224 1.73333 24.2667 6.77759 24.2667 13ZM26 13C26 20.1797 20.1797 26 13 26C5.8203 26 0 20.1797 0 13C0 5.8203 5.8203 0 13 0C20.1797 0 26 5.8203 26 13ZM16.9253 7.4805L18.5195 9.0747L14.594 13.0002L18.5195 16.9257L16.9253 18.5199L12.9998 14.5944L9.07429 18.5199L7.48009 16.9257L11.4056 13.0002L7.48009 9.0747L9.07429 7.4805L12.9998 11.406L16.9253 7.4805Z" fill="black"/>
</svg>
