<svg width="9" height="14" viewBox="0 0 9 14" fill="none" xmlns="http://www.w3.org/2000/svg">
<path d="M4.08691 13.062H4.96582V11.8315C6.68701 11.6997 8.12988 10.7109 8.12988 8.95312V8.9458C8.12988 7.40039 7.0752 6.62402 5.19287 6.16992L4.96582 6.11865V2.75684C5.95459 2.88135 6.64307 3.48926 6.74561 4.41211L6.75293 4.47803H8.02734L8.02002 4.36816C7.91748 2.83008 6.65039 1.75342 4.96582 1.59961V0.369141H4.08691V1.60693C2.3584 1.76807 1.11328 2.83008 1.11328 4.39746V4.40479C1.11328 5.85498 2.09473 6.66797 3.91846 7.10742L4.08691 7.15137V10.6743C2.82715 10.5352 2.28516 9.82471 2.13867 8.98242L2.12402 8.89453H0.849609L0.856934 8.99707C0.974121 10.6304 2.35107 11.6704 4.08691 11.8242V13.062ZM2.3877 4.33887V4.33154C2.3877 3.62109 2.97363 2.91064 4.08691 2.75684V5.90625C2.83447 5.59863 2.3877 5.05664 2.3877 4.33887ZM5.00977 7.37109C6.45264 7.72266 6.85547 8.22803 6.85547 9.02637V9.03369C6.85547 9.8833 6.32812 10.5791 4.96582 10.689V7.36377L5.00977 7.37109Z" fill="#1A1A1A"/>
</svg>
