<svg width="25" height="25" viewBox="0 0 25 25" fill="none" xmlns="http://www.w3.org/2000/svg">
<g clip-path="url(#clip0_192_8422)">
<path d="M0.777527 16.8478C2.54369 21.6078 7.12548 25 12.5 25C17.8746 25 22.4564 21.6078 24.2225 16.8478L12.5 15.7609L0.777527 16.8478Z" fill="#FFDA44"/>
<path d="M12.5 0C7.12548 0 2.54369 3.39219 0.777527 8.1522L12.5 9.23911L24.2225 8.15215C22.4564 3.39219 17.8746 0 12.5 0Z" fill="#161616"/>
<path d="M0.77749 8.15216C0.275049 9.50631 0 10.971 0 12.5C0 14.029 0.275049 15.4936 0.77749 16.8478H24.2226C24.725 15.4936 25 14.029 25 12.5C25 10.971 24.725 9.50631 24.2225 8.15216H0.77749Z" fill="#D80027"/>
</g>
<defs>
<clipPath id="clip0_192_8422">
<rect width="25" height="25" fill="white"/>
</clipPath>
</defs>
</svg>
