<svg width="25" height="25" viewBox="0 0 25 25" fill="none" xmlns="http://www.w3.org/2000/svg">
<g clip-path="url(#clip0_191_8393)">
<path d="M12.5 25C19.4036 25 25 19.4036 25 12.5C25 5.59644 19.4036 0 12.5 0C5.59644 0 0 5.59644 0 12.5C0 19.4036 5.59644 25 12.5 25Z" fill="#F0F0F0"/>
<path d="M25 12.5C25 7.12546 21.6078 2.54367 16.8478 0.777512V24.2226C21.6078 22.4564 25 17.8746 25 12.5Z" fill="#D80027"/>
<path d="M0 12.5C0 17.8746 3.39224 22.4564 8.1522 24.2225V0.777512C3.39224 2.54367 0 7.12546 0 12.5Z" fill="#0052B4"/>
</g>
<defs>
<clipPath id="clip0_191_8393">
<rect width="25" height="25" fill="white"/>
</clipPath>
</defs>
</svg>
