<svg width="25" height="25" viewBox="0 0 25 25" fill="none" xmlns="http://www.w3.org/2000/svg">
<g clip-path="url(#clip0_192_8430)">
<path d="M12.5 25C19.4036 25 25 19.4036 25 12.5C25 5.59644 19.4036 0 12.5 0C5.59644 0 0 5.59644 0 12.5C0 19.4036 5.59644 25 12.5 25Z" fill="#F0F0F0"/>
<path d="M24.2225 16.8478C24.725 15.4936 25 14.029 25 12.5C25 10.971 24.725 9.50631 24.2225 8.15216H0.77749C0.275049 9.50631 0 10.971 0 12.5C0 14.029 0.275049 15.4936 0.77749 16.8478L12.5 17.9347L24.2225 16.8478Z" fill="#0052B4"/>
<path d="M12.5 25C17.8746 25 22.4564 21.6078 24.2225 16.8478H0.777527C2.54369 21.6078 7.12548 25 12.5 25Z" fill="#D80027"/>
</g>
<defs>
<clipPath id="clip0_192_8430">
<rect width="25" height="25" fill="white"/>
</clipPath>
</defs>
</svg>
