<svg width="14" height="11" viewBox="0 0 14 11" fill="none" xmlns="http://www.w3.org/2000/svg">
<path d="M13.6303 1.39722L5.0547 10.8679C4.97874 10.9524 4.87535 11 4.76749 11C4.65964 11 4.55624 10.9524 4.48029 10.8679L0.119654 6.05213C0.0430747 5.96825 0 5.85407 0 5.73495C0 5.61584 0.0430747 5.50166 0.119654 5.41777L0.68597 4.79235C0.761924 4.70778 0.865316 4.66021 0.973174 4.66021C1.08103 4.66021 1.18442 4.70778 1.26038 4.79235L4.76345 8.66102L12.4896 0.128513C12.6497 -0.0428375 12.904 -0.0428375 13.064 0.128513L13.6303 0.762867C13.7069 0.846747 13.75 0.960929 13.75 1.08004C13.75 1.19916 13.7069 1.31334 13.6303 1.39722Z" fill="white"/>
</svg>
