<svg width="22" height="22" viewBox="0 0 22 22" fill="none" xmlns="http://www.w3.org/2000/svg">
<path d="M18.2138 6.89722L9.63819 16.3679C9.56224 16.4524 9.45885 16.5 9.35099 16.5C9.24313 16.5 9.13974 16.4524 9.06379 16.3679L4.70315 11.5521C4.62657 11.4682 4.5835 11.3541 4.5835 11.235C4.5835 11.1158 4.62657 11.0017 4.70315 10.9178L5.26947 10.2924C5.34542 10.2078 5.44881 10.1602 5.55667 10.1602C5.66453 10.1602 5.76792 10.2078 5.84387 10.2924L9.34694 14.161L17.0731 5.62851C17.2332 5.45716 17.4875 5.45716 17.6475 5.62851L18.2138 6.26287C18.2904 6.34675 18.3335 6.46093 18.3335 6.58004C18.3335 6.69916 18.2904 6.81334 18.2138 6.89722Z" fill="white"/>
</svg>
