<svg width="343" height="130" viewBox="0 0 343 130" fill="none" xmlns="http://www.w3.org/2000/svg">
<g opacity="0.7" clip-path="url(#clip0_224_7055)">
<path opacity="0.06" d="M0 104.901H60.092V126.908H85.4003V104.901H100.927V83.6882H85.4003V1.71143H52.2672L0 84.0549V104.901ZM60.5811 83.6882H26.6532V82.71L59.6029 30.5653H60.5811V83.6882Z" fill="black"/>
<path opacity="0.06" d="M171.095 129.659C202.577 129.659 221.589 105.696 221.65 64.432C221.711 23.4744 202.455 0 171.095 0C139.674 0 120.601 23.4132 120.54 64.432C120.417 105.574 139.551 129.598 171.095 129.659ZM171.095 107.713C156.729 107.713 147.437 93.2862 147.498 64.432C147.559 36.0062 156.79 21.7016 171.095 21.7016C185.338 21.7016 194.63 36.0062 194.63 64.432C194.691 93.2862 185.4 107.713 171.095 107.713Z" fill="black"/>
<path opacity="0.06" d="M242.073 104.901H302.165V126.908H327.474V104.901H343.001V83.6882H327.474V1.71143H294.34L242.073 84.0549V104.901ZM302.654 83.6882H268.726V82.71L301.676 30.5653H302.654V83.6882Z" fill="black"/>
</g>
<defs>
<clipPath id="clip0_224_7055">
<rect width="343" height="129.659" fill="white"/>
</clipPath>
</defs>
</svg>
